<svg xmlns="http://www.w3.org/2000/svg" version="1.0" width="1258.000000pt" height="416.690256pt" viewBox="0 0 1258.000000 416.690256" preserveAspectRatio="xMidYMid meet">
<metadata fill="#0f2d6b">
Created by potrace 1.12, written by Peter Selinger 2001-2015
</metadata>
<g transform="translate(-123.000000,622.000000) scale(0.100000,-0.100000)" fill="#0f2d6b" stroke="none">
<path d="M1230 4170 l0 -2050 2015 0 2015 0 0 2050 0 2050 -2015 0 -2015 0 0 -2050z m3820 238 c0 -887 2 -1703 4 -1813 2 -110 2 -217 -1 -237 l-6 -38 -1803 0 -1804 0 0 1850 0 1850 1805 0 1805 0 0 -1612z" fill="#0f2d6b"/>
<path d="M2543 3452 l-313 -2 0 -50 0 -49 148 -3 147 -3 3 -373 2 -373 58 3 57 3 2 370 2 370 146 3 145 3 0 49 c0 52 -10 61 -65 57 -11 -1 -161 -3 -332 -5z" fill="#0f2d6b"/>
<path d="M4355 3447 c-208 -70 -333 -276 -297 -493 53 -319 415 -468 664 -272 41 32 100 116 92 130 -7 10 -93 52 -98 47 -1 -2 -12 -21 -25 -41 -26 -43 -98 -94 -155 -109 -57 -15 -134 -5 -193 24 -150 77 -211 279 -135 450 26 58 66 103 121 135 40 24 56 27 131 27 72 0 93 -4 135 -26 29 -14 63 -43 80 -66 17 -23 33 -42 38 -42 13 -1 87 49 87 59 0 5 -19 33 -43 62 -30 37 -63 63 -109 87 -59 30 -77 34 -160 37 -60 3 -107 -1 -133 -9z" fill="#0f2d6b"/>
<path d="M3060 3025 l0 -425 60 0 60 0 0 313 0 312 73 -130 c40 -71 101 -178 136 -237 l63 -108 42 0 42 0 128 228 c71 125 132 231 137 237 5 5 9 -121 9 -303 l0 -312 55 0 55 0 0 425 0 425 -59 0 -59 0 -114 -202 c-63 -112 -132 -234 -153 -271 -28 -50 -40 -66 -49 -57 -6 6 -76 127 -156 268 l-146 257 -62 3 -62 3 0 -426z" fill="#0f2d6b"/>
<path d="M5660 6095 l0 -75 185 0 185 0 0 -515 0 -515 85 0 85 0 0 515 0 515 185 0 185 0 0 75 0 75 -455 0 -455 0 0 -75z" fill="#0f2d6b"/>
<path d="M6760 5580 l0 -590 368 0 c203 0 371 2 373 4 2 2 3 36 1 75 l-4 71 -289 0 -289 0 2 188 3 187 263 -1 262 0 0 78 0 78 -265 0 -265 0 0 175 0 175 285 0 285 0 0 75 0 75 -365 0 -365 0 0 -590z" fill="#0f2d6b"/>
<path d="M7720 5580 l0 -590 80 0 80 0 2 443 3 442 71 -100 c39 -55 181 -254 314 -442 l244 -343 72 0 72 0 5 78 c2 42 4 307 3 587 l-1 510 -82 3 -83 3 -2 -444 -3 -444 -290 414 c-159 227 -299 427 -310 443 -19 29 -23 30 -97 30 l-78 0 0 -590z" fill="#0f2d6b"/>
<path d="M8930 5580 l0 -590 375 0 375 0 0 75 0 75 -290 0 -290 0 0 185 c0 141 3 185 13 186 6 1 123 1 260 0 l247 -1 0 80 0 80 -260 0 -260 0 0 175 0 175 285 0 285 0 0 75 0 75 -370 0 -370 0 0 -590z" fill="#0f2d6b"/>
<path d="M9897 6164 c-3 -3 -6 -269 -7 -590 l0 -584 85 0 85 0 0 218 c0 120 2 221 4 223 2 2 66 2 141 -1 l136 -5 118 -215 118 -215 93 -3 c85 -3 92 -1 86 15 -8 21 -162 300 -213 384 -18 31 -33 61 -33 66 0 4 16 17 35 27 44 24 107 92 134 144 48 95 48 244 -1 348 -24 53 -88 118 -140 145 -82 42 -141 49 -393 49 -133 0 -244 -3 -248 -6z m528 -163 c74 -33 125 -113 125 -197 0 -61 -28 -130 -69 -167 -54 -49 -92 -57 -268 -57 l-153 0 0 220 0 220 163 0 c135 0 169 -3 202 -19z" fill="#0f2d6b"/>
<path d="M10940 5580 l0 -590 85 0 85 0 0 590 0 590 -85 0 -85 0 0 -590z" fill="#0f2d6b"/>
<path d="M11380 5580 l0 -590 85 0 85 0 0 255 0 255 255 0 255 0 0 75 0 75 -255 0 -255 0 0 185 0 185 283 2 282 3 3 73 3 72 -371 0 -370 0 0 -590z" fill="#0f2d6b"/>
<path d="M12330 5580 l0 -590 375 0 375 0 0 75 0 75 -290 0 -290 0 0 188 0 187 187 -1 c104 0 222 1 263 3 l75 4 -3 75 -4 74 -259 0 -259 0 0 175 0 175 285 0 285 0 0 75 0 75 -370 0 -370 0 0 -590z" fill="#0f2d6b"/>
<path d="M13247 6164 c-20 -20 -5 -34 38 -34 l45 0 0 -130 0 -130 25 0 25 0 0 130 0 130 46 0 c38 0 45 3 42 18 -3 15 -18 17 -109 20 -58 1 -108 -1 -112 -4z" fill="#0f2d6b"/>
<path d="M13510 6021 c0 -144 1 -151 20 -151 19 0 20 7 20 108 l1 107 43 -105 c60 -144 70 -144 127 -3 l44 107 3 -107 c2 -99 4 -107 22 -107 19 0 20 8 20 151 l0 150 -27 -3 c-25 -3 -32 -13 -73 -115 -25 -62 -47 -113 -51 -113 -3 0 -26 51 -51 113 -41 99 -49 112 -72 115 l-26 3 0 -150z" fill="#0f2d6b"/>
<path d="M5686 4673 c-3 -4 -6 -28 -6 -55 l0 -48 3730 0 3730 0 0 55 0 54 -3724 0 c-2048 0 -3726 -3 -3730 -6z" fill="#0f2d6b"/>
<path d="M5680 4390 l0 -50 3730 0 3730 0 0 50 0 50 -3730 0 -3730 0 0 -50z" fill="#0f2d6b"/>
<path d="M7220 3996 c-217 -48 -353 -245 -353 -511 0 -176 49 -302 159 -404 91 -85 147 -105 294 -105 148 0 203 20 296 106 104 98 154 228 154 404 0 270 -129 456 -352 509 -75 17 -123 18 -198 1z m174 -130 c64 -19 121 -61 157 -113 110 -160 96 -437 -29 -566 -62 -65 -104 -82 -202 -82 -77 0 -90 3 -140 31 -64 36 -109 91 -141 171 -20 50 -24 76 -24 183 0 107 4 133 23 181 62 155 213 238 356 195z" fill="#0f2d6b"/>
<path d="M9936 3999 c-166 -27 -303 -165 -351 -354 -20 -77 -20 -243 0 -320 34 -131 112 -242 209 -299 106 -62 286 -74 408 -27 153 59 237 210 238 424 l0 77 -200 0 -200 0 0 -65 0 -65 130 0 131 0 -7 -37 c-27 -156 -142 -244 -297 -230 -168 15 -270 144 -284 356 -14 223 97 390 279 416 105 16 233 -59 275 -161 l18 -44 73 0 74 0 -7 33 c-21 102 -108 214 -205 259 -90 43 -181 55 -284 37z" fill="#0f2d6b"/>
<path d="M11804 3995 c-168 -36 -292 -161 -338 -341 -20 -78 -21 -248 -1 -332 39 -164 149 -288 297 -333 87 -27 234 -23 310 7 160 65 229 176 244 398 l7 106 -202 0 -201 0 0 -65 0 -65 129 0 128 0 -8 -51 c-29 -184 -230 -273 -408 -182 -66 34 -118 101 -147 190 -28 85 -25 257 5 336 63 161 209 245 355 203 71 -21 146 -87 173 -152 l18 -44 73 0 72 0 -6 28 c-13 59 -65 153 -106 195 -52 52 -130 91 -212 106 -74 14 -105 13 -182 -4z" fill="#0f2d6b"/>
<path d="M5690 3485 l0 -505 70 0 70 0 2 352 3 353 48 -115 c27 -63 94 -222 150 -353 l101 -238 60 3 59 3 92 220 c51 121 118 281 149 355 l55 135 1 -357 0 -358 70 0 70 0 0 505 0 506 -82 -3 -81 -3 -166 -397 c-146 -352 -181 -426 -181 -388 0 9 -175 432 -288 695 l-38 90 -82 3 -82 3 0 -506z" fill="#0f2d6b"/>
<path d="M7940 3486 l0 -506 70 0 70 0 2 193 3 192 111 3 110 3 59 -108 c32 -59 80 -147 107 -195 l49 -88 80 0 80 0 -17 33 c-9 17 -60 108 -112 202 l-94 169 23 15 c54 34 117 109 134 161 24 71 17 208 -12 265 -29 55 -88 109 -148 137 -47 22 -65 23 -282 26 l-233 3 0 -505z m459 351 c123 -62 119 -262 -6 -323 -30 -15 -66 -19 -175 -22 l-138 -4 0 186 0 185 73 4 c120 7 198 -1 246 -26z" fill="#0f2d6b"/>
<path d="M8730 3925 l0 -66 155 3 155 3 0 -442 0 -443 75 0 75 0 -2 440 -3 440 158 0 157 0 0 65 0 65 -385 0 -385 0 0 -65z" fill="#0f2d6b"/>
<path d="M10870 3968 c-6 -13 -91 -239 -189 -503 l-180 -480 71 -3 c39 -2 75 1 79 5 5 5 28 64 51 133 l43 125 204 0 204 0 14 -40 c7 -22 29 -82 49 -132 l36 -93 74 0 c89 0 89 -26 -2 210 -35 91 -117 307 -183 480 l-118 315 -72 3 c-66 3 -72 1 -81 -20z m155 -378 c37 -102 70 -191 72 -197 4 -10 -29 -13 -146 -13 -83 0 -151 1 -151 3 0 2 21 59 46 128 25 68 58 159 72 201 14 43 29 74 32 70 4 -4 37 -90 75 -192z" fill="#0f2d6b"/>
<path d="M12492 3488 l3 -503 323 -3 322 -2 0 65 0 65 -250 0 -250 0 0 160 0 160 225 0 225 0 0 65 0 65 -225 0 -225 0 0 150 0 150 243 2 242 3 3 63 3 62 -321 0 -320 0 2 -502z" fill="#0f2d6b"/>
<path d="M5855 2591 c-170 -77 -219 -303 -95 -444 57 -64 117 -91 205 -91 59 0 79 5 124 29 46 26 101 79 101 98 0 4 -11 14 -24 22 -24 16 -26 15 -66 -24 -73 -70 -170 -78 -250 -20 -106 77 -108 266 -4 346 67 50 181 44 245 -14 38 -34 40 -35 64 -19 29 19 25 34 -22 78 -60 57 -197 76 -278 39z" fill="#0f2d6b"/>
<path d="M6596 2595 c-174 -62 -232 -305 -106 -448 57 -64 117 -91 205 -91 157 1 267 113 267 274 0 117 -56 208 -157 256 -58 28 -147 31 -209 9z m149 -56 c25 -7 56 -27 82 -55 68 -71 82 -162 37 -253 -43 -86 -130 -126 -221 -102 -90 24 -142 101 -143 207 0 100 45 167 136 199 48 17 59 18 109 4z" fill="#0f2d6b"/>
<path d="M7240 2336 l0 -276 35 0 c46 0 47 7 43 224 -2 97 -1 176 2 176 3 0 73 -90 155 -200 140 -186 152 -199 183 -200 l32 0 0 275 0 275 -35 0 -35 0 -2 -208 -3 -209 -156 206 c-139 185 -158 206 -187 209 l-32 3 0 -275z" fill="#0f2d6b"/>
<path d="M8080 2599 c-55 -22 -100 -85 -100 -139 0 -75 51 -125 155 -151 28 -7 69 -20 93 -30 71 -31 81 -101 19 -139 -59 -37 -160 -20 -219 37 l-26 25 -18 -27 c-23 -35 -13 -52 57 -90 46 -25 64 -29 129 -29 120 0 180 44 188 137 8 95 -29 134 -163 172 -91 26 -123 44 -133 75 -13 37 4 70 48 93 43 22 97 15 156 -19 l42 -24 16 25 c21 32 15 42 -48 71 -55 26 -148 32 -196 13z" fill="#0f2d6b"/>
<path d="M8630 2426 c0 -194 7 -236 51 -297 43 -61 148 -91 240 -69 38 9 63 24 94 54 60 61 70 105 70 316 l0 175 -37 3 -38 3 0 -180 c0 -203 -9 -245 -63 -283 -43 -31 -134 -32 -174 -2 -61 46 -68 71 -71 277 l-4 187 -34 0 -34 0 0 -184z" fill="#0f2d6b"/>
<path d="M9380 2335 l0 -275 180 0 180 0 0 35 0 35 -145 0 -145 0 0 240 0 240 -35 0 -35 0 0 -275z" fill="#0f2d6b"/>
<path d="M9877 2603 c-4 -3 -7 -19 -7 -35 l0 -28 95 0 95 0 0 -240 0 -240 35 0 35 0 0 240 0 240 90 0 90 0 0 35 0 35 -213 0 c-118 0 -217 -3 -220 -7z" fill="#0f2d6b"/>
<path d="M10569 2344 c-63 -147 -116 -271 -118 -276 -1 -5 16 -8 39 -6 l42 3 28 70 28 70 126 3 127 3 34 -76 c33 -73 36 -75 70 -75 19 0 35 4 35 8 0 5 -51 127 -114 273 l-113 264 -35 3 -35 3 -114 -267z m199 48 c23 -56 42 -107 42 -112 0 -6 -40 -10 -95 -10 -52 0 -95 2 -95 5 0 19 95 234 100 228 4 -5 25 -54 48 -111z" fill="#0f2d6b"/>
<path d="M11230 2335 l0 -275 41 0 41 0 -4 205 c-2 113 -2 205 -1 205 2 0 51 -64 109 -142 195 -261 201 -268 240 -268 l34 0 -2 273 -3 272 -37 3 -38 3 0 -211 0 -212 -112 149 c-198 264 -206 273 -239 273 l-29 0 0 -275z" fill="#0f2d6b"/>
<path d="M12146 2600 c-70 -21 -143 -96 -172 -177 -45 -127 21 -285 144 -344 100 -49 241 -23 312 57 37 42 38 57 5 72 -24 11 -29 9 -63 -27 -92 -97 -252 -69 -312 54 -18 37 -21 59 -18 114 7 122 77 191 195 191 61 0 114 -23 141 -61 16 -23 31 -24 60 -3 l22 15 -26 34 c-40 53 -114 85 -193 84 -37 0 -79 -5 -95 -9z" fill="#0f2d6b"/>
<path d="M12660 2606 c0 -3 47 -81 105 -173 l105 -167 0 -103 0 -103 34 0 c33 0 34 1 40 54 4 29 6 75 5 102 -2 46 4 59 96 209 53 88 100 165 102 172 4 9 -6 13 -34 13 l-38 0 -80 -135 c-44 -74 -83 -133 -87 -132 -4 1 -43 61 -86 132 l-79 130 -42 3 c-22 2 -41 1 -41 -2z" fill="#0f2d6b"/>
</g>
</svg>